<svg width="520" height="140" viewBox="0 0 520 140" fill="none" xmlns="http://www.w3.org/2000/svg" role="img" aria-labelledby="logoTitle logoDesc">
  <title id="logoTitle">SchoolHub Logo</title>
  <desc id="logoDesc">A modern logo for a multi-tenant school management system with a graduation cap and connected nodes.</desc>

  <defs>
    <linearGradient id="brandGradient" x1="12" y1="10" x2="130" y2="130" gradientUnits="userSpaceOnUse">
      <stop offset="0" stop-color="#1D4ED8"/>
      <stop offset="1" stop-color="#0891B2"/>
    </linearGradient>
    <linearGradient id="textGradient" x1="160" y1="24" x2="500" y2="112" gradientUnits="userSpaceOnUse">
      <stop offset="0" stop-color="#1E293B"/>
      <stop offset="1" stop-color="#334155"/>
    </linearGradient>
  </defs>

  <rect x="8" y="8" width="124" height="124" rx="28" fill="url(#brandGradient)"/>

  <path d="M70 30L32 44L70 58L108 44L70 30Z" fill="white"/>
  <path d="M48 58V72C48 80 58 86 70 86C82 86 92 80 92 72V58" stroke="white" stroke-width="6" stroke-linecap="round" stroke-linejoin="round"/>
  <path d="M108 44V66" stroke="white" stroke-width="5" stroke-linecap="round"/>
  <circle cx="108" cy="71" r="5" fill="white"/>

  <circle cx="30" cy="104" r="6" fill="#FBBF24"/>
  <circle cx="70" cy="108" r="6" fill="#FBBF24"/>
  <circle cx="110" cy="104" r="6" fill="#FBBF24"/>
  <path d="M36 104H64M76 108H104" stroke="#FBBF24" stroke-width="4" stroke-linecap="round"/>

  <text x="160" y="78" fill="url(#textGradient)" font-family="Poppins, Segoe UI, sans-serif" font-size="56" font-weight="700" letter-spacing="0.5">SchoolHub</text>
  <text x="162" y="106" fill="#475569" font-family="Poppins, Segoe UI, sans-serif" font-size="18" font-weight="500" letter-spacing="1.2">MULTI-TENANT SCHOOL MANAGEMENT</text>
</svg>
